<?xml version="1.0" standalone="no"?>
<!DOCTYPE svg PUBLIC "-//W3C//DTD SVG 20010904//EN"
 "http://www.w3.org/TR/2001/REC-SVG-20010904/DTD/svg10.dtd">
<svg version="1.0" xmlns="http://www.w3.org/2000/svg"
 width="500.000000pt" height="500.000000pt" viewBox="0 0 500.000000 500.000000"
 preserveAspectRatio="xMidYMid meet">

<g transform="translate(0.000000,500.000000) scale(0.100000,-0.100000)"
fill="#000000" stroke="none">
<path d="M685 4989 c-280 -52 -518 -243 -621 -497 -64 -158 -59 -3 -59 -1997
0 -1698 1 -1814 18 -1874 46 -168 103 -267 222 -386 93 -93 161 -140 263 -181
143 -57 17 -54 1992 -54 1975 0 1849 -3 1992 54 102 41 170 88 263 181 119
119 176 218 222 386 17 60 18 176 18 1874 0 1698 -1 1814 -18 1874 -46 168
-103 267 -222 386 -117 117 -209 170 -381 222 -56 17 -163 18 -1849 19 -1069
1 -1810 -2 -1840 -7z m3676 -270 c183 -71 303 -195 365 -379 18 -53 19 -122
19 -1845 0 -1723 -1 -1792 -19 -1845 -65 -191 -195 -321 -386 -386 -53 -18
-122 -19 -1840 -19 -1718 0 -1787 1 -1840 19 -97 33 -173 79 -240 146 -67 67
-113 143 -146 240 -18 53 -19 122 -19 1845 0 1723 1 1792 19 1845 60 178 183
309 349 372 28 11 70 23 92 28 22 4 836 7 1810 6 l1770 -1 66 -26z"/>
<path d="M1582 3975 c-17 -14 -82 -119 -151 -244 -104 -188 -121 -225 -121
-263 0 -51 30 -105 70 -125 30 -15 89 -17 124 -3 l26 10 0 -1202 c0 -1186 0
-1201 20 -1233 52 -85 188 -85 240 0 20 32 20 46 20 1513 0 938 -4 1490 -10
1506 -25 66 -159 91 -218 41z"/>
<path d="M2565 3944 c-293 -54 -530 -230 -590 -438 -23 -78 -23 -177 -1 -211
41 -62 131 -83 194 -45 38 23 72 75 72 110 1 142 178 277 408 310 82 12 722
13 740 1 10 -6 -72 -158 -334 -617 -1167 -2048 -1137 -1995 -1141 -2054 -3
-43 0 -62 17 -88 40 -64 6 -62 915 -62 901 0 871 -2 913 57 47 66 33 150 -31
197 -28 21 -40 21 -747 26 l-719 5 247 435 c137 239 472 829 747 1310 446 783
499 880 502 925 5 58 -19 105 -64 128 -44 23 -1016 32 -1128 11z"/>
</g>
</svg>
