<?xml version="1.0" encoding="iso-8859-1"?>
<!-- Uploaded to: SVG Repo, www.svgrepo.com, Generator: SVG Repo Mixer Tools -->
<svg fill="#000000" height="800px" width="800px" version="1.1" id="Layer_1" xmlns="http://www.w3.org/2000/svg" xmlns:xlink="http://www.w3.org/1999/xlink" 
	 viewBox="0 0 512 512" xml:space="preserve">
<g>
	<g>
		<path d="M253.874,258.002c-7.049-7.048-16.42-10.93-26.388-10.93H54.439c-20.577,0-37.318,16.741-37.318,37.318
			c0,20.577,16.741,37.318,37.318,37.318h82.952L10.93,448.169C3.882,455.218,0,464.589,0,474.557c0,9.969,3.882,19.34,10.93,26.389
			c7.04,7.04,16.412,10.917,26.389,10.917c9.976,0,19.348-3.877,26.388-10.917l126.46-126.462v82.953
			c0,20.577,16.74,37.318,37.318,37.318c9.968,0,19.339-3.882,26.389-10.93c7.049-7.049,10.93-16.421,10.93-26.388V284.39
			C264.804,274.422,260.922,265.05,253.874,258.002z M244.805,457.438c0,4.625-1.801,8.974-5.072,12.245
			c-3.272,3.271-7.621,5.073-12.247,5.073c-9.549,0-17.318-7.769-17.318-17.318V350.343c0-4.045-2.436-7.691-6.173-9.239
			c-3.736-1.548-8.037-0.692-10.898,2.167L49.565,486.804c-3.263,3.263-7.612,5.06-12.246,5.06c-4.635,0-8.984-1.797-12.246-5.06
			c-3.272-3.271-5.073-7.62-5.073-12.246c0-4.626,1.802-8.975,5.073-12.246l143.532-143.534c2.859-2.86,3.715-7.162,2.167-10.898
			c-1.548-3.736-5.195-6.173-9.239-6.173H54.439c-9.549,0-17.318-7.769-17.318-17.318c0-9.549,7.769-17.318,17.318-17.318v-0.001
			h173.048c4.626,0,8.975,1.802,12.246,5.073c3.271,3.271,5.072,7.62,5.072,12.246V457.438z"/>
	</g>
</g>
<g>
	<g>
		<path d="M512,37.438c0-9.968-3.882-19.34-10.93-26.389c-14.551-14.55-38.227-14.55-52.777,0l-126.46,126.463V54.559
			c0-20.577-16.74-37.318-37.318-37.318c-9.968,0-19.339,3.882-26.389,10.93c-7.049,7.049-10.93,16.421-10.93,26.388v173.047
			c0,9.968,3.882,19.34,10.93,26.388c7.049,7.048,16.42,10.93,26.388,10.93h173.047c20.577,0,37.317-16.741,37.317-37.318
			c0-20.577-16.741-37.318-37.318-37.318h-82.952L501.07,63.826C508.118,56.777,512,47.406,512,37.438z M486.927,49.684
			L343.394,193.219c-2.859,2.859-3.715,7.161-2.167,10.897c1.548,3.736,5.195,6.173,9.239,6.173H457.56
			c9.549,0,17.318,7.769,17.318,17.318s-7.769,17.318-17.318,17.318H284.513c-4.626,0-8.975-1.802-12.246-5.073
			s-5.072-7.62-5.072-12.246V54.558c0-4.625,1.801-8.974,5.072-12.245c3.272-3.271,7.621-5.073,12.247-5.073
			c9.549,0,17.318,7.769,17.318,17.319v107.094c0,4.045,2.436,7.691,6.173,9.239c3.737,1.55,8.038,0.693,10.898-2.167
			L462.435,25.192c6.753-6.753,17.741-6.752,24.492,0c3.272,3.271,5.073,7.62,5.073,12.246
			C492,42.064,490.198,46.413,486.927,49.684z"/>
	</g>
</g>
<g>
	<g>
		<path d="M227,377.238c-5.523,0-10,4.477-10,10v2.76c0,5.523,4.477,10,10,10s10-4.477,10-10v-2.76
			C237,381.715,232.523,377.238,227,377.238z"/>
	</g>
</g>
<g>
	<g>
		<path d="M227,277.447c-5.523,0-10,4.477-10,10v72.684c0,5.523,4.477,10,10,10s10-4.477,10-10v-72.684
			C237,281.924,232.523,277.447,227,277.447z"/>
	</g>
</g>
</svg>